<svg xmlns="http://www.w3.org/2000/svg" viewBox="0 0 1366 768">
  <path fill="#9BC0E0" d="M0 0h1366v768H0V0z"/>
  <path fill="#D9D9E2" stroke="#1D1D26" stroke-linecap="round" stroke-linejoin="round" stroke-miterlimit="10" stroke-width="15" d="M493.5 134.9h379c33.7 0 61 27.3 61 61V249c0 33.7-27.3 61-61 61h-379c-33.7 0-61-27.3-61-61v-53.2c0-33.6 27.3-60.9 61-60.9z"/>
  <g fill="#1D1D26">
    <path d="M567 211.3c-1.1-1.3-2.5-2.4-4.1-3.1-1.6-.7-3.5-1.1-5.6-1.1-2.1 0-4.1.4-5.9 1.2-1.8.8-3.4 2-4.7 3.4-1.3 1.5-2.4 3.2-3.1 5.2-.7 2-1.1 4.2-1.1 6.6 0 2.4.4 4.6 1.1 6.6.7 2 1.8 3.7 3.1 5.2s2.8 2.6 4.6 3.4c1.8.8 3.6 1.2 5.7 1.2 2.3 0 4.3-.5 6.1-1.4 1.8-1 3.2-2.3 4.4-4l9.4 7c-2.2 3-4.9 5.3-8.2 6.7-3.3 1.4-6.7 2.2-10.2 2.2-4 0-7.7-.6-11-1.9-3.4-1.2-6.3-3-8.7-5.4-2.4-2.3-4.4-5.1-5.7-8.5s-2.1-7-2.1-11.1.7-7.8 2.1-11.1 3.3-6.1 5.7-8.5c2.4-2.3 5.4-4.1 8.7-5.4 3.4-1.2 7-1.9 11-1.9 1.4 0 2.9.1 4.5.4 1.6.3 3.1.7 4.6 1.3 1.5.6 3 1.3 4.4 2.3 1.4 1 2.6 2.1 3.7 3.5l-8.7 7.2zM581.4 194.6h10.8V249h-10.8v-54.4zM598.9 203c0-1.7.6-3.2 1.8-4.4 1.2-1.2 2.7-1.8 4.4-1.8s3.2.6 4.4 1.8 1.8 2.7 1.8 4.4-.6 3.2-1.8 4.4-2.7 1.8-4.4 1.8-3.2-.6-4.4-1.8c-1.1-1.2-1.8-2.7-1.8-4.4zm.9 11h10.8v35h-10.8v-35zM641.7 225.3c-.5-.8-1.3-1.4-2.2-1.9-1-.5-2-.8-3.1-.8-2.7 0-4.9.8-6.4 2.4-1.5 1.6-2.3 3.8-2.3 6.4 0 2.6.8 4.8 2.3 6.4 1.5 1.6 3.6 2.4 6.4 2.4 1.2 0 2.2-.3 3.1-.8.9-.5 1.6-1.2 2.2-1.9l7.1 7.5a14.5 14.5 0 01-5.9 3.6c-2.3.7-4.5 1-6.5 1-2.7 0-5.2-.4-7.6-1.3-2.4-.9-4.4-2.1-6.2-3.7-1.8-1.6-3.1-3.5-4.1-5.8-1-2.3-1.5-4.8-1.5-7.6s.5-5.3 1.5-7.6 2.4-4.2 4.1-5.8c1.8-1.6 3.8-2.8 6.2-3.7 2.4-.9 4.9-1.3 7.6-1.3 2.1 0 4.2.3 6.5 1s4.3 1.9 5.9 3.6l-7.1 7.9zM652.4 194.6h10.8v33.3l12-13.8h13.2l-13.9 15.8 14.3 19.2h-13.6l-11.8-17.7h-.1V249h-10.8v-54.4zM713 214h10.4v4.8h.1c.3-.7.8-1.3 1.4-2 .6-.7 1.4-1.3 2.2-1.8.9-.5 1.8-1 3-1.3 1.1-.3 2.3-.5 3.6-.5 2.4 0 4.6.5 6.5 1.5 1.9 1 3.3 2.6 4.3 4.8 1.2-2.3 2.8-3.9 4.5-4.8 1.8-1 4-1.4 6.6-1.4 2.4 0 4.3.4 5.9 1.2 1.6.8 2.9 1.9 3.8 3.2.9 1.4 1.6 3 2 4.8.4 1.8.6 3.8.6 5.9V249h-10.8v-20.4c0-1.6-.3-3-1-4.2-.7-1.2-1.9-1.8-3.7-1.8-1.2 0-2.3.2-3.1.6-.8.4-1.5 1-2 1.7s-.9 1.6-1.1 2.5c-.2 1-.3 2-.3 3V249h-10.8v-18.5c0-.6 0-1.4-.1-2.3 0-.9-.2-1.8-.5-2.6s-.8-1.5-1.4-2.1c-.6-.6-1.6-.9-2.8-.9-1.4 0-2.5.3-3.4.8-.9.5-1.5 1.2-2 2s-.8 1.8-.9 2.8c-.1 1.1-.2 2.2-.2 3.3V249H713v-35zM808.4 243c-1.7 2.2-3.9 3.9-6.6 5.1-2.6 1.2-5.4 1.8-8.2 1.8-2.7 0-5.2-.4-7.6-1.3-2.4-.9-4.4-2.1-6.2-3.7-1.8-1.6-3.1-3.5-4.1-5.8-1-2.3-1.5-4.8-1.5-7.6s.5-5.3 1.5-7.6 2.4-4.2 4.1-5.8c1.8-1.6 3.8-2.8 6.2-3.7 2.4-.9 4.9-1.3 7.6-1.3 2.5 0 4.8.4 6.8 1.3s3.8 2.1 5.2 3.7c1.4 1.6 2.5 3.5 3.3 5.8.8 2.3 1.2 4.8 1.2 7.6v3.4H785c.4 2.1 1.4 3.7 2.8 4.9 1.4 1.2 3.2 1.8 5.3 1.8 1.8 0 3.3-.4 4.5-1.2 1.2-.8 2.3-1.8 3.2-3.1l7.6 5.7zm-9.2-15.4c0-1.8-.6-3.4-1.8-4.7-1.2-1.3-2.9-1.9-4.8-1.9-1.2 0-2.3.2-3.2.6-.9.4-1.7.9-2.3 1.5-.6.6-1.2 1.3-1.5 2.1-.4.8-.6 1.6-.6 2.5h14.2zM821.8 242.8c0-.9.2-1.8.5-2.6s.8-1.5 1.4-2.1c.6-.6 1.3-1.1 2.1-1.4.8-.3 1.7-.5 2.6-.5.9 0 1.8.2 2.6.5s1.5.8 2.1 1.4c.6.6 1.1 1.3 1.4 2.1.3.8.5 1.7.5 2.6 0 .9-.2 1.8-.5 2.6s-.8 1.5-1.4 2.1c-.6.6-1.3 1.1-2.1 1.4-.8.3-1.7.5-2.6.5-.9 0-1.8-.2-2.6-.5s-1.5-.8-2.1-1.4c-.6-.6-1.1-1.3-1.4-2.1-.4-.8-.5-1.7-.5-2.6zm12-10.6H823V198h10.8v34.2z"/>
  </g>
  <g>
    <path fill="#FF1493" d="M493.5 426.6h379c33.7 0 61 27.3 61 61v53.2c0 33.7-27.3 61-61 61h-379c-33.7 0-61-27.3-61-61v-53.2c0-33.7 27.3-61 61-61z"/>
    <path fill="none" stroke="#1D1D26" stroke-linecap="round" stroke-linejoin="round" stroke-miterlimit="10" stroke-width="15" d="M493.5 426.6h379c33.7 0 61 27.3 61 61v53.2c0 33.7-27.3 61-61 61h-379c-33.7 0-61-27.3-61-61v-53.2c0-33.7 27.3-61 61-61z"/>
    <g>
      <path fill="none" stroke="#1D1D26" stroke-dasharray="14.848 14.848" stroke-linecap="round" stroke-linejoin="round" stroke-width="10" d="M490.8 395.3h384.4c50.9 0 92.2 41.3 92.2 92.2v53.4c0 50.9-41.3 92.2-92.2 92.2H490.8c-50.9 0-92.2-41.3-92.2-92.2v-53.4c0-51 41.3-92.2 92.2-92.2z"/>
      <g fill="#1D1D26">
        <path d="M567 503c-1.1-1.3-2.5-2.4-4.1-3.1-1.6-.7-3.5-1.1-5.6-1.1-2.1 0-4.1.4-5.9 1.2-1.8.8-3.4 2-4.7 3.4-1.3 1.5-2.4 3.2-3.1 5.2-.7 2-1.1 4.2-1.1 6.6 0 2.4.4 4.6 1.1 6.6.7 2 1.8 3.7 3.1 5.2s2.8 2.6 4.6 3.4c1.8.8 3.6 1.2 5.7 1.2 2.3 0 4.3-.5 6.1-1.4 1.8-1 3.2-2.3 4.4-4l9.4 7c-2.2 3-4.9 5.3-8.2 6.7-3.3 1.4-6.7 2.2-10.2 2.2-4 0-7.7-.6-11-1.9-3.4-1.2-6.3-3-8.7-5.4-2.4-2.3-4.4-5.1-5.7-8.5s-2.1-7-2.1-11.1.7-7.8 2.1-11.1 3.3-6.1 5.7-8.5c2.4-2.3 5.4-4.1 8.7-5.4 3.4-1.2 7-1.9 11-1.9 1.4 0 2.9.1 4.5.4 1.6.3 3.1.7 4.6 1.3 1.5.6 3 1.3 4.4 2.3 1.4 1 2.6 2.1 3.7 3.5L567 503zM581.4 486.3h10.8v54.4h-10.8v-54.4zM598.9 494.8c0-1.7.6-3.2 1.8-4.4 1.2-1.2 2.7-1.8 4.4-1.8s3.2.6 4.4 1.8 1.8 2.7 1.8 4.4-.6 3.2-1.8 4.4-2.7 1.8-4.4 1.8-3.2-.6-4.4-1.8c-1.1-1.2-1.8-2.7-1.8-4.4zm.9 11h10.8v35h-10.8v-35zM641.7 517.1c-.5-.8-1.3-1.4-2.2-1.9-1-.5-2-.8-3.1-.8-2.7 0-4.9.8-6.4 2.4-1.5 1.6-2.3 3.8-2.3 6.4 0 2.6.8 4.8 2.3 6.4 1.5 1.6 3.6 2.4 6.4 2.4 1.2 0 2.2-.3 3.1-.8.9-.5 1.6-1.2 2.2-1.9l7.1 7.5a14.5 14.5 0 01-5.9 3.6c-2.3.7-4.5 1-6.5 1-2.7 0-5.2-.4-7.6-1.3-2.4-.9-4.4-2.1-6.2-3.7-1.8-1.6-3.1-3.5-4.1-5.8-1-2.3-1.5-4.8-1.5-7.6s.5-5.3 1.5-7.6 2.4-4.2 4.1-5.8c1.8-1.6 3.8-2.8 6.2-3.7 2.4-.9 4.9-1.3 7.6-1.3 2.1 0 4.2.3 6.5 1s4.3 1.9 5.9 3.6l-7.1 7.9zM652.4 486.3h10.8v33.3l12-13.8h13.2l-13.9 15.8 14.3 19.2h-13.6l-11.8-17.7h-.1v17.7h-10.8v-54.5zM713 505.8h10.4v4.8h.1c.3-.7.8-1.3 1.4-2 .6-.7 1.4-1.3 2.2-1.8.9-.5 1.8-1 3-1.3 1.1-.3 2.3-.5 3.6-.5 2.4 0 4.6.5 6.5 1.5 1.9 1 3.3 2.6 4.3 4.8 1.2-2.3 2.8-3.9 4.5-4.8 1.8-1 4-1.4 6.6-1.4 2.4 0 4.3.4 5.9 1.2 1.6.8 2.9 1.9 3.8 3.2.9 1.4 1.6 3 2 4.8.4 1.8.6 3.8.6 5.9v20.7h-10.8v-20.4c0-1.6-.3-3-1-4.2-.7-1.2-1.9-1.8-3.7-1.8-1.2 0-2.3.2-3.1.6-.8.4-1.5 1-2 1.7s-.9 1.6-1.1 2.5c-.2 1-.3 2-.3 3v18.5h-10.8v-18.5c0-.6 0-1.4-.1-2.3 0-.9-.2-1.8-.5-2.6s-.8-1.5-1.4-2.1c-.6-.6-1.6-.9-2.8-.9-1.4 0-2.5.3-3.4.8-.9.5-1.5 1.2-2 2s-.8 1.8-.9 2.8c-.1 1.1-.2 2.2-.2 3.3v17.4H713v-34.9zM808.4 534.7c-1.7 2.2-3.9 3.9-6.6 5.1-2.6 1.2-5.4 1.8-8.2 1.8-2.7 0-5.2-.4-7.6-1.3-2.4-.9-4.4-2.1-6.2-3.7-1.8-1.6-3.1-3.5-4.1-5.8-1-2.3-1.5-4.8-1.5-7.6s.5-5.3 1.5-7.6 2.4-4.2 4.1-5.8c1.8-1.6 3.8-2.8 6.2-3.7 2.4-.9 4.9-1.3 7.6-1.3 2.5 0 4.8.4 6.8 1.3s3.8 2.1 5.2 3.7c1.4 1.6 2.5 3.5 3.3 5.8.8 2.3 1.2 4.8 1.2 7.6v3.4H785c.4 2.1 1.4 3.7 2.8 4.9 1.4 1.2 3.2 1.8 5.3 1.8 1.8 0 3.3-.4 4.5-1.2 1.2-.8 2.3-1.8 3.2-3.1l7.6 5.7zm-9.2-15.4c0-1.8-.6-3.4-1.8-4.7-1.2-1.3-2.9-1.9-4.8-1.9-1.2 0-2.3.2-3.2.6-.9.4-1.7.9-2.3 1.5-.6.6-1.2 1.3-1.5 2.1-.4.8-.6 1.6-.6 2.5h14.2zM821.8 534.6c0-.9.2-1.8.5-2.6s.8-1.5 1.4-2.1c.6-.6 1.3-1.1 2.1-1.4.8-.3 1.7-.5 2.6-.5.9 0 1.8.2 2.6.5s1.5.8 2.1 1.4c.6.6 1.1 1.3 1.4 2.1.3.8.5 1.7.5 2.6 0 .9-.2 1.8-.5 2.6s-.8 1.5-1.4 2.1c-.6.6-1.3 1.1-2.1 1.4-.8.3-1.7.5-2.6.5-.9 0-1.8-.2-2.6-.5s-1.5-.8-2.1-1.4c-.6-.6-1.1-1.3-1.4-2.1-.4-.8-.5-1.7-.5-2.6zm12-10.7H823v-34.1h10.8v34.1z"/>
      </g>
    </g>
  </g>
</svg>
