<?xml version="1.0" encoding="utf-8"?>
<!-- Generator: Adobe Illustrator 22.1.0, SVG Export Plug-In . SVG Version: 6.00 Build 0)  -->
<svg version="1.1" xmlns="http://www.w3.org/2000/svg" xmlns:xlink="http://www.w3.org/1999/xlink" x="0px" y="0px"
	 viewBox="0 0 1600 900" enable-background="new 0 0 1600 900" xml:space="preserve">
<g id="Layer_2">
	<rect y="1" fill="#EBF7FC" width="1600" height="900"/>
</g>
<g id="Layer_1">
	<g>
		<path fill="#CE94F7" d="M793.3,806.7c12.3-25.5,1.8-46-12.9-70.1c-14.7-24.1-36.9-42.6-58.7-60.5c-37.7-31.1-75.4-62.2-113.1-93.4
			c-23-19-46.2-38.2-64.8-61.6c-44.5-56.3-57.3-137.5-27.4-202.8s103.1-109.4,174.3-100.5S823.4,291.3,824.3,363
			c23.6-52.8,65.3-99.1,119.4-119.6c54.1-20.5,120.5-11.5,161.5,29.3c47.9,47.6,51.9,125.1,34.3,190.3
			c-24.4,90.3-85,170.3-165.4,218.1C905,722.3,834.2,753,793.5,806.5"/>
		<g>
			<path fill="#CE94F7" d="M798.5,809.7c7.6-16.4,7.8-33.3,1-50c-6.8-16.5-16.7-32.2-28.2-45.8c-11.6-13.6-25.1-25.4-38.8-36.7
				c-15.6-13-31.4-25.9-47.1-38.8c-31.6-26.1-63.6-51.6-94.6-78.4c-26.9-23.2-51-48.9-66.1-81.5c-27.2-58.4-25.4-130.9,12.5-184.2
				c34.9-49.1,98.5-80.3,158.9-69.6c58.4,10.3,108.7,58.4,120,116.9c1.4,7.1,2,14.2,2.2,21.5c0.1,5.5,8.6,8.7,11.2,3
				c26.9-59.7,77.8-112.8,144.4-124.8c31.8-5.7,66-1.8,95,12.8c28.7,14.5,50.5,39.3,62.1,69.2c23.9,61.6,10.3,132.6-16.2,191
				c-27.8,61.3-72.6,114.9-128.7,152.2c-60.1,40-131.1,65.7-182,118.6c-5.6,5.8-10.8,12-15.7,18.4c-4.7,6.1,5.7,12.1,10.4,6.1
				c21.7-28.3,51.5-49.3,81.7-67.8c33.5-20.4,68.6-38,101.9-58.6c59.4-36.8,107.9-90.9,138.4-153.7c29.3-60.2,45.7-132.8,25.5-198.4
				c-9.8-31.8-29.1-60.2-56.9-78.9c-27.8-18.7-62.4-26.8-95.7-25.1c-70.1,3.5-128.9,50.6-162.9,109.9c-4.3,7.5-8.2,15.2-11.8,23.1
				c3.7,1,7.5,2,11.2,3c-1.1-62.6-44.9-118.4-101.9-141.5c-59.7-24.2-128.4-5.4-175,36.8c-49.9,45.2-68.2,114.2-54.7,179.3
				c6.9,33.4,22,64.9,43.7,91.2c25.4,30.7,58.1,55,88.7,80.2c32.7,27,65.7,53.7,98.1,81.1c13.8,11.7,27.5,23.9,38.4,38.4
				c5.8,7.7,10.8,16,15.4,24.5c4.2,7.8,8,16.2,9.3,25.1c1.3,8.8-0.4,17.6-4.2,25.6C784.9,810.6,795.3,816.7,798.5,809.7L798.5,809.7
				z"/>
		</g>
	</g>
	<g>
		<path fill="#FF1C9E" d="M739.3,779.7c12.3-25.5,1.8-46-12.9-70.1c-14.7-24.1-36.9-42.6-58.7-60.5c-37.7-31.1-75.4-62.2-113.1-93.4
			c-23-19-46.2-38.2-64.8-61.6c-44.5-56.3-57.3-137.5-27.4-202.8s103.1-109.4,174.3-100.5S769.4,264.3,770.3,336
			c23.6-52.8,65.3-99.1,119.4-119.6c54.1-20.5,120.5-11.5,161.5,29.3c47.9,47.6,51.9,125.1,34.3,190.3
			c-24.4,90.3-85,170.3-165.4,218.1C851,695.3,779.7,726.5,739,780"/>
		<g>
			<path fill="#FF1C9E" d="M745.8,783.4c7.8-16.8,8.1-34,1.1-51.1c-6.8-16.8-16.9-32.7-28.6-46.4c-11.6-13.6-25.1-25.4-38.8-36.7
				c-15.6-13-31.4-25.9-47.1-38.8c-31.6-26.1-63.6-51.6-94.6-78.4c-26.9-23.2-50.8-48.7-65.9-81.2c-27-58-25.1-129.8,12.5-182.7
				c34.4-48.5,97.5-79.5,157.2-69c57.9,10.3,107.8,57.9,119,115.9c1.3,7,2,14,2.1,21.1c0.1,6.9,10.8,10.9,14,3.8
				c26.8-59.4,77.3-112.1,143.5-124.1c31.3-5.7,65.2-1.8,93.8,12.6c28.4,14.3,49.9,38.8,61.4,68.3c23.8,61.2,10.3,131.8-16,189.9
				c-27.7,61-72.3,114.5-128.1,151.7c-60.4,40.2-131.6,66.2-182.8,119.3c-5.7,5.9-10.9,12.2-15.9,18.7c-2.5,3.2-0.5,8.4,2.7,10.3
				c3.8,2.3,7.8,0.5,10.3-2.7c21.6-28.2,51.4-49.1,81.4-67.5c33.5-20.5,68.8-38.1,102.2-58.8c59.6-36.9,108.3-91.3,139-154.2
				c29.5-60.5,46-133.6,25.6-199.6c-10-32.2-29.4-60.9-57.6-79.8c-28-18.8-62.9-27-96.4-25.3c-70.7,3.5-130,50.9-164.2,110.6
				c-4.3,7.5-8.2,15.2-11.8,23.1c4.7,1.3,9.3,2.5,14,3.8c-1.1-63.3-45.3-119.6-103-143c-60.2-24.4-129.5-5.4-176.5,37.2
				c-50.3,45.6-68.7,115.1-55,180.8c7,33.7,22.2,65.3,44.1,91.8c25.4,30.7,58.1,55,88.7,80.2c32.7,27,65.7,53.7,98.1,81.1
				c13.7,11.6,27.3,23.8,38.2,38.1c5.8,7.7,10.8,16,15.4,24.5c4.2,7.7,7.9,16,9.2,24.7c1.2,8.4-0.5,16.8-4,24.5
				C728.8,784.6,741.8,792.2,745.8,783.4L745.8,783.4z"/>
		</g>
	</g>
	<g>
		<g>
			<g>
				<path fill="#CE94F7" d="M672.6,404.6c-6.1,5.6-7.3,15-3.1,22c1.8,3,5.2,3.5,8.2,2.2c8.6-3.9,12.9-14.6,9.9-23.4
					c-1.2-3.3-4-4.7-7.4-4.2c-9.2,1.4-14.5,10.9-12.8,19.6c0.6,3.3,4.4,4.8,7.4,4.2c7.1-1.4,11.5-7.5,12.2-14.4
					c0.3-2.7-2.1-5-4.4-5.8c-8.6-3-17,5.7-14.8,14.2c0.9,3.4,4.2,4.6,7.4,4.2c7.4-1,13.1-8.5,12.4-15.9c-0.3-3.2-2.5-6-6-6
					c-3,0-6.3,2.8-6,6c0.2,2.7-1,4-3.6,4.3c2.5,1.4,4.9,2.8,7.4,4.2c0.2,0.8-1.4,0.1,0,0.6c-1.5-1.9-2.9-3.9-4.4-5.8
					c-0.2,1.8-1.9,2.5-3.4,2.8c2.5,1.4,4.9,2.8,7.4,4.2c-0.5-2.8,2.1-4.5,4.4-4.8c-2.5-1.4-4.9-2.8-7.4-4.2c1.5,4.2-0.4,8.1-4.4,9.9
					c2.7,0.7,5.5,1.4,8.2,2.2c-1.6-2.6-1-5.5,1.2-7.5C686.7,407.8,678.2,399.3,672.6,404.6L672.6,404.6z"/>
			</g>
		</g>
		<g>
			<g>
				<path fill="#CE94F7" d="M860.8,408.8c-5.2,6.3-7.1,14-5.2,22c0.8,3.3,4.3,4.8,7.4,4.2c9.3-1.7,14.8-11.5,12.8-20.4
					c-0.6-2.8-3.2-4.1-5.8-4.4c-9.5-1-17.2,9.3-14.4,18.2c1.3,4,5.2,5.2,8.8,3.6c5.2-2.3,10.5-6.2,10.5-12.5
					c0-5.6-4.3-11.2-10.2-10.8c-3.2,0.2-6,2.6-6,6c0,3.1,2.8,6.2,6,6c-1,0.1-1.9-1.6-1.9-1.6c-0.5,0.1-1.1,0.8-1.5,1.1
					c-1,0.5-2,1-3,1.5c2.9,1.2,5.9,2.4,8.8,3.6c-0.6-2,1-3.2,2.8-3c-1.9-1.5-3.9-2.9-5.8-4.4c0.6,2.9-1.7,5.1-4.4,5.6
					c2.5,1.4,4.9,2.8,7.4,4.2c-0.9-3.5-0.3-7.5,2.1-10.4c2-2.5,2.5-6,0-8.5C867.2,406.7,862.9,406.3,860.8,408.8L860.8,408.8z"/>
			</g>
		</g>
		<g>
			<g>
				<path fill="#CE94F7" d="M682.3,505.6c13.3,28,47.9,40,76.8,41.9c30.5,1.9,61.4-7.2,87.2-23c7.2-4.4,14-9.3,20.4-14.7
					c4.6-3.9,15.5-12.7,7.5-19.1c-1.6-1.3-3.8-2.4-5.8-1.5c-0.2,0.1-0.4,0.2-0.7,0.3c-7.1,2.8-4,14.4,3.2,11.6
					c0.2-0.1,0.4-0.2,0.7-0.3c-1.9-0.5-3.9-1-5.8-1.5c-1.5-1.2,0.1-3.4-1.9-2.9c-0.4,0.1-1.3,1.2-1.7,1.5c-1.1,1-2.3,2-3.4,3
					c-2.5,2.1-5.1,4.2-7.8,6.1c-5.3,3.9-10.9,7.5-16.7,10.7c-11.1,6.2-22.9,10.9-35.2,14c-24.3,6.2-50.6,5.8-73.9-3.9
					c-13.6-5.6-26.1-14.6-32.5-28.1C689.3,492.6,679,498.7,682.3,505.6L682.3,505.6z"/>
			</g>
		</g>
	</g>
	<g>
		<g>
			<g>
				<g>
					<path fill="#E2B1FF" d="M378.2,495.2c-25.4,13.9-50.7,27.9-76.1,41.8c-6.8,3.7-0.7,14.1,6.1,10.4
						c25.4-13.9,50.7-27.9,76.1-41.8C391,501.9,385,491.5,378.2,495.2L378.2,495.2z"/>
				</g>
			</g>
			<g>
				<g>
					<path fill="#E2B1FF" d="M459.5,608.6c-26.9,25.1-53.8,50.2-80.7,75.2c-5.7,5.3,2.8,13.7,8.5,8.5c26.9-25.1,53.8-50.2,80.7-75.2
						C473.7,611.8,465.2,603.3,459.5,608.6L459.5,608.6z"/>
				</g>
			</g>
			<g>
				<g>
					<path fill="#E2B1FF" d="M586.5,727.5c-17.6,19.6-33.4,40.7-47.1,63.2c-4,6.6,6.3,12.6,10.4,6.1c13.2-21.6,28.3-41.9,45.2-60.8
						C600.1,730.3,591.7,721.8,586.5,727.5L586.5,727.5z"/>
				</g>
			</g>
			<g>
				<g>
					<path fill="#E2B1FF" d="M1159.9,193c29.4-14.4,59.7-26.6,90.9-36.4c7.3-2.3,4.2-13.9-3.2-11.6c-32.2,10.2-63.5,22.8-93.8,37.6
						C1147,186.1,1153,196.4,1159.9,193L1159.9,193z"/>
				</g>
			</g>
			<g>
				<g>
					<path fill="#E2B1FF" d="M1201,323.9c17.2,0.5,34.4,1.4,51.5,2.9c8.4,0.7,16.8,1.5,25.2,2.4c4.2,0.5,8.4,0.9,12.6,1.5
						c1.9,0.2,3.9,0.5,5.8,0.7c1.3,0.2,2.6,0.3,3.9,0.5c2.4,1,2.9,0.6,1.6-1.1c0.2-1.5,0.4-3.1,0.6-4.6c-0.2,0.3-0.3,0.6-0.5,0.8
						c-3.7,6.8,6.7,12.9,10.4,6.1c1.9-3.5,1.4-7.2-1.6-9.9c-3.6-3.2-8.9-3.1-13.4-3.7c-10.6-1.4-21.3-2.6-31.9-3.6
						c-21.3-2-42.7-3.4-64.2-4C1193.3,311.7,1193.3,323.7,1201,323.9L1201,323.9z"/>
				</g>
			</g>
			<g>
				<g>
					<path fill="#E2B1FF" d="M1211.4,478c18.2,3.1,36.4,6.4,54.6,10c8.9,1.8,17.8,3.6,26.7,5.4c4.4,0.9,8.9,1.9,13.3,2.9
						c2.2,0.5,4.4,1,6.7,1.5c1.3,0.3,2.5,0.6,3.8,0.8c2.8,1.1,3.1-0.8,1.1-5.8c1.5-0.2,3.1-0.4,4.6-0.6c-0.3-0.1-0.5-0.2-0.8-0.2
						c-7.4-2.2-10.6,9.4-3.2,11.6c4.2,1.3,8.5-1.2,9.7-5.4c1.3-4.6-1.7-8.6-5.9-10.3c-5.1-2.1-11.2-2.7-16.6-3.9
						c-6-1.3-12.1-2.6-18.1-3.8c-24.2-5-48.4-9.5-72.7-13.7C1207,465.2,1203.8,476.8,1211.4,478L1211.4,478z"/>
				</g>
			</g>
			<g>
				<g>
					<path fill="#E2B1FF" d="M1139,642.5c37.8,28.6,77,55.2,117.7,79.6c6.6,4,12.7-6.4,6.1-10.4c-40.6-24.4-79.9-51-117.7-79.6
						C1138.9,627.5,1132.9,637.9,1139,642.5L1139,642.5z"/>
				</g>
			</g>
			<g>
				<g>
					<path fill="#E2B1FF" d="M1042.8,746.2c23.7,21.6,46.5,44.2,68.5,67.6c5.3,5.6,13.8-2.9,8.5-8.5c-22-23.4-44.8-45.9-68.5-67.6
						C1045.5,732.6,1037,741,1042.8,746.2L1042.8,746.2z"/>
				</g>
			</g>
			<g>
				<g>
					<path fill="#E2B1FF" d="M365,362.5c-37-3.2-73.8-8.1-110.2-14.9c-7.5-1.4-10.8,10.2-3.2,11.6c37.5,7,75.4,12.1,113.4,15.3
						C372.7,375.2,372.6,363.1,365,362.5L365,362.5z"/>
				</g>
			</g>
			<g>
				<g>
					<path fill="#E2B1FF" d="M413.1,196.6c-9.2-17.9-28.9-26.1-45.2-36.1c-19.9-12.1-38.5-26.1-55.7-41.7c-5.7-5.2-14.2,3.3-8.5,8.5
						c16.6,15.1,34.5,28.8,53.5,40.7c15.6,9.8,36.7,17.4,45.5,34.6C406.3,209.5,416.7,203.4,413.1,196.6L413.1,196.6z"/>
				</g>
			</g>
			<g>
				<g>
					<path fill="#E2B1FF" d="M535.2,126.5c-9.1-20.8-19.2-41.1-30.2-60.9c-3.7-6.8-14.1-0.7-10.4,6.1c11,19.8,21.1,40.2,30.2,60.9
						C527.9,139.6,538.3,133.5,535.2,126.5L535.2,126.5z"/>
				</g>
			</g>
		</g>
		<g>
			<g>
				<path fill="#E2B1FF" d="M466,158.1c-6.8-12.2-16.3-22.5-27.8-30.5c-6.3-4.4-12.3,6-6.1,10.4c9.8,6.8,17.7,15.8,23.5,26.2
					C459.4,170.9,469.7,164.8,466,158.1L466,158.1z"/>
			</g>
		</g>
		<g>
			<g>
				<path fill="#E2B1FF" d="M388.4,279.2c-15.6-8.9-33.4-13.2-51.4-12.1c-7.7,0.5-7.7,12.5,0,12c16-1,31.4,2.5,45.3,10.5
					C389,293.4,395.1,283.1,388.4,279.2L388.4,279.2z"/>
			</g>
		</g>
		<g>
			<g>
				<path fill="#E2B1FF" d="M375.1,421.5c-18.4,3-36.1,8.6-53.1,16.5c-7,3.3-0.9,13.6,6.1,10.4c15.9-7.4,32.8-12.5,50.2-15.3
					C385.9,431.9,382.7,420.3,375.1,421.5L375.1,421.5z"/>
			</g>
		</g>
		<g>
			<g>
				<path fill="#E2B1FF" d="M414.1,549.9c-13.1,10.3-26.1,20.7-39.2,31c-6.1,4.8,2.5,13.2,8.5,8.5c13.1-10.3,26.1-20.7,39.2-31
					C428.6,553.6,420.1,545.1,414.1,549.9L414.1,549.9z"/>
			</g>
		</g>
		<g>
			<g>
				<path fill="#E2B1FF" d="M511.9,672.1c-8,10.7-16,21.3-24.1,32c-4.6,6.2,5.8,12.2,10.4,6.1c8-10.7,16-21.3,24.1-32
					C526.9,671.9,516.5,666,511.9,672.1L511.9,672.1z"/>
			</g>
		</g>
		<g>
			<g>
				<path fill="#E2B1FF" d="M1192.5,258.6c11.9-3.8,24-4.9,36.5-3.3c7.6,1,7.6-11.1,0-12c-13.4-1.7-26.8-0.3-39.6,3.8
					C1182,249.3,1185.1,260.9,1192.5,258.6L1192.5,258.6z"/>
			</g>
		</g>
		<g>
			<g>
				<path fill="#E2B1FF" d="M1213.5,412.1c12.6,2.1,25.3,4.3,37.9,6.4c7.6,1.3,10.8-10.3,3.2-11.6c-12.6-2.1-25.3-4.3-37.9-6.4
					C1209.2,399.3,1205.9,410.8,1213.5,412.1L1213.5,412.1z"/>
			</g>
		</g>
		<g>
			<g>
				<path fill="#E2B1FF" d="M1181.9,572.4c16.7,8.6,33.8,16.2,51.5,22.6c7.3,2.7,10.4-8.9,3.2-11.6c-16.7-6.1-32.8-13.3-48.6-21.4
					C1181.1,558.5,1175,568.8,1181.9,572.4L1181.9,572.4z"/>
			</g>
		</g>
		<g>
			<g>
				<path fill="#E2B1FF" d="M1098.1,713.9c12.4,11.6,26.5,21,42,27.9c7,3.1,13.1-7.2,6.1-10.4c-14.6-6.4-27.9-15.1-39.6-26
					C1101,700.1,1092.5,708.6,1098.1,713.9L1098.1,713.9z"/>
			</g>
		</g>
	</g>
</g>
</svg>
